<?xml version="1.0" standalone="no"?>
<!DOCTYPE svg PUBLIC "-//W3C//DTD SVG 20010904//EN"
 "http://www.w3.org/TR/2001/REC-SVG-20010904/DTD/svg10.dtd">
<svg version="1.0" xmlns="http://www.w3.org/2000/svg"
 width="512.000000pt" height="512.000000pt" viewBox="0 0 512.000000 512.000000"
 preserveAspectRatio="xMidYMid meet">

<g transform="translate(0.000000,512.000000) scale(0.100000,-0.100000)"
fill="#000000" stroke="none">
<path d="M2450 5110 c-233 -30 -474 -172 -715 -421 -171 -177 -332 -396 -485
-659 -255 -440 -465 -980 -446 -1149 15 -130 174 -390 431 -705 47 -57 85
-107 85 -110 0 -3 -51 -6 -112 -6 -98 0 -120 -3 -164 -24 -97 -45 -144 -135
-144 -276 l0 -76 -84 -77 c-86 -78 -192 -210 -260 -324 -55 -92 -136 -268
-136 -296 0 -14 10 -35 23 -47 l23 -23 -30 -93 c-23 -69 -35 -93 -48 -94 -32
0 -67 -22 -77 -49 -39 -97 -108 -484 -97 -544 8 -45 58 -105 103 -123 49 -21
4438 -21 4486 0 63 27 107 93 107 160 0 53 -39 271 -72 396 -103 402 -218 661
-394 886 -59 76 -198 214 -216 214 -4 0 -8 37 -8 83 0 143 -42 231 -133 280
-35 18 -64 23 -168 27 l-127 5 125 155 c232 288 385 541 399 661 18 159 -187
698 -425 1114 -63 110 -93 139 -133 131 -27 -5 -32 0 -84 79 -54 83 -55 85
-38 110 24 37 14 60 -78 176 -362 459 -736 668 -1108 619z m389 -1706 c2 -2
-22 -4 -53 -4 -92 0 -153 -40 -171 -113 -7 -25 -11 -27 -55 -27 -44 0 -48 2
-55 27 -18 72 -77 112 -172 115 -38 1 -20 4 52 8 105 6 445 1 454 -6z m-1094
-91 c-4 -10 -10 -31 -13 -46 -4 -27 -6 -28 -66 -25 -57 3 -61 4 -61 27 0 22 7
27 65 42 84 22 83 22 75 2z m1725 -8 c38 -9 45 -15 45 -36 0 -22 -4 -24 -61
-27 -60 -3 -62 -2 -66 25 -3 15 -9 36 -13 46 -8 20 -15 20 95 -8z m-2016 -145
c3 -44 9 -93 12 -110 6 -29 5 -30 -30 -30 -25 0 -45 8 -67 28 -29 26 -32 34
-33 91 l-1 63 45 18 c25 11 50 19 56 19 7 1 14 -31 18 -79z m2300 55 l39 -16
-6 -62 c-5 -53 -10 -66 -36 -89 -22 -20 -42 -28 -67 -28 -35 0 -36 1 -30 30 3
17 9 67 12 111 8 90 5 88 88 54z m-1139 -137 c18 -81 68 -143 145 -177 41 -19
65 -21 278 -21 196 0 240 3 268 16 51 24 77 68 82 136 l4 58 54 0 c51 0 54 -2
54 -24 0 -36 -48 -182 -81 -249 -136 -270 -381 -460 -668 -519 -125 -26 -316
-21 -436 12 -263 72 -487 254 -608 495 -38 78 -87 222 -87 261 0 22 3 24 54
24 l54 0 4 -58 c5 -68 31 -112 82 -136 28 -13 72 -16 268 -16 213 0 237 2 278
21 77 34 127 96 145 177 6 31 8 32 55 32 47 0 49 -1 55 -32z m-255 -935 c106
-20 313 -18 423 5 l87 18 0 -22 c0 -12 3 -36 6 -53 l7 -31 -333 0 -332 0 6 31
c3 17 6 43 6 56 0 22 3 24 28 18 15 -4 61 -13 102 -22z m1677 -266 l28 -27 3
-720 3 -720 -1511 0 -1511 0 3 719 c3 703 3 719 23 741 11 12 29 26 40 31 11
4 667 7 1457 6 l1438 -2 27 -28z m241 -1670 c3 -32 0 -38 -23 -47 -37 -14
-3369 -14 -3396 0 -19 11 -28 68 -12 83 3 4 776 6 1717 5 l1711 -3 3 -38z"/>
<path d="M2509 1399 c-93 -14 -177 -74 -224 -160 -40 -73 -46 -180 -16 -260
25 -67 91 -137 159 -171 67 -33 197 -33 264 0 68 34 134 104 159 171 30 80 24
187 -16 260 -64 117 -193 181 -326 160z m131 -170 c103 -58 106 -199 6 -273
-39 -29 -133 -29 -172 0 -45 33 -67 70 -72 122 -12 128 125 214 238 151z"/>
</g>
</svg>
